<svg width="8" height="8" viewBox="0 0 8 8" fill="none" xmlns="http://www.w3.org/2000/svg">
<path d="M4.58731 3.99983L7.21231 1.379C7.29077 1.30054 7.33485 1.19413 7.33485 1.08317C7.33485 0.972207 7.29077 0.865793 7.21231 0.787333C7.13385 0.708873 7.02744 0.664795 6.91648 0.664795C6.80552 0.664795 6.6991 0.708873 6.62065 0.787333L3.99981 3.41233L1.37898 0.787333C1.30052 0.708873 1.1941 0.664795 1.08315 0.664795C0.972186 0.664795 0.865772 0.708873 0.787312 0.787333C0.708852 0.865793 0.664774 0.972207 0.664774 1.08317C0.664774 1.19413 0.708852 1.30054 0.787312 1.379L3.41231 3.99983L0.787312 6.62067C0.748258 6.6594 0.717261 6.70548 0.696107 6.75626C0.674954 6.80703 0.664062 6.86149 0.664062 6.9165C0.664062 6.9715 0.674954 7.02596 0.696107 7.07674C0.717261 7.12751 0.748258 7.1736 0.787312 7.21233C0.826046 7.25139 0.87213 7.28238 0.922905 7.30354C0.973679 7.32469 1.02814 7.33558 1.08315 7.33558C1.13815 7.33558 1.19261 7.32469 1.24339 7.30354C1.29416 7.28238 1.34024 7.25139 1.37898 7.21233L3.99981 4.58733L6.62065 7.21233C6.65938 7.25139 6.70546 7.28238 6.75624 7.30354C6.80701 7.32469 6.86147 7.33558 6.91648 7.33558C6.97148 7.33558 7.02594 7.32469 7.07672 7.30354C7.12749 7.28238 7.17358 7.25139 7.21231 7.21233C7.25136 7.1736 7.28236 7.12751 7.30352 7.07674C7.32467 7.02596 7.33556 6.9715 7.33556 6.9165C7.33556 6.86149 7.32467 6.80703 7.30352 6.75626C7.28236 6.70548 7.25136 6.6594 7.21231 6.62067L4.58731 3.99983Z" fill="#AAAAAA"/>
</svg>
