<svg width="22" height="22" viewBox="0 0 22 22" fill="none" xmlns="http://www.w3.org/2000/svg">
<g clip-path="url(#clip0)">
<path d="M11.0002 22.0014C17.0754 22.0014 22.0004 17.0764 22.0004 11.0012C22.0004 4.92593 17.0754 0.000976562 11.0002 0.000976562C4.92496 0.000976562 0 4.92593 0 11.0012C0 17.0764 4.92496 22.0014 11.0002 22.0014Z" fill="#CB2027"/>
<path d="M11.8872 14.731C11.0556 14.6667 10.7062 14.2543 10.054 13.8584C9.69556 15.7391 9.25749 17.5419 7.95997 18.4837C7.55897 15.6412 8.54785 13.5062 9.00709 11.24C8.2243 9.92229 9.10121 7.27 10.7523 7.92356C12.7843 8.72713 8.99297 12.8232 11.5382 13.3348C14.1954 13.869 15.2802 8.72419 13.6322 7.05077C11.2513 4.63476 6.70187 6.99586 7.26131 10.4545C7.39759 11.3 8.27136 11.5567 7.61035 12.7234C6.08654 12.386 5.63201 11.1841 5.69044 9.58188C5.78476 6.9592 8.04704 5.12282 10.3162 4.86869C13.1859 4.5475 15.8794 5.92247 16.2512 8.62183C16.6695 11.6685 14.9556 14.9679 11.8872 14.731Z" fill="#F1F2F2"/>
</g>
<defs>
<clipPath id="clip0">
</clipPath>
</defs>
</svg>
